# xmcd
#
# Track frame offsets:
#	150
#	17366
#	34225
#	53837
#	69819
#	89436
#	106879
#	121620
#	145080
#	167071
#	186180
#	212088
#	226856
#	241637
#	258386
#
# Disc length: 3606 seconds
#
# Revision: 1
# Processed by: cddbd v1.5.2PL0 Copyright (c) Steve Scherf et al.
# Submitted via: audiograbber 1.83.01
#
DISCID=b70e140f
DTITLE=Phantom Blues Band - Out Of The Shadows
DYEAR=2006
DGENRE=Blues
TTITLE0=Do The Dirt
TTITLE1=My Aching Back
TTITLE2=Who's Been Sleeping In My Bed?
TTITLE3=I Only Have Love
TTITLE4=Rain Down Tears
TTITLE5=I'm Looking For A Miracle
TTITLE6=Big Boy Pete
TTITLE7=Let Them Talk
TTITLE8=Book Of Rules
TTITLE9=Havana Moon
TTITLE10=Part Time Love
TTITLE11=Think
TTITLE12=Yield Not To Temptation
TTITLE13=Baby Doll (Bonus Track)
TTITLE14=Mary Ann (Bonus Track)
EXTD=
EXTT0=
EXTT1=
EXTT2=
EXTT3=
EXTT4=
EXTT5=
EXTT6=
EXTT7=
EXTT8=
EXTT9=
EXTT10=
EXTT11=
EXTT12=
EXTT13=
EXTT14=
PLAYORDER=
